<?xml version="1.0" encoding="UTF-8" standalone="no"?>
<svg
   width="740px"
   height="390px"
   viewBox="0 0 740 390"
   version="1.1"
   id="svg1"
   sodipodi:docname="tum-dark.svg"
   inkscape:version="1.4.2 (ebf0e940, 2025-05-08)"
   xmlns:inkscape="http://www.inkscape.org/namespaces/inkscape"
   xmlns:sodipodi="http://sodipodi.sourceforge.net/DTD/sodipodi-0.dtd"
   xmlns="http://www.w3.org/2000/svg"
   xmlns:svg="http://www.w3.org/2000/svg"
   xmlns:sketch="http://www.bohemiancoding.com/sketch/ns">
  <sodipodi:namedview
     id="namedview1"
     pagecolor="#ffffff"
     bordercolor="#000000"
     borderopacity="0.25"
     inkscape:showpageshadow="2"
     inkscape:pageopacity="0.0"
     inkscape:pagecheckerboard="0"
     inkscape:deskcolor="#d1d1d1"
     inkscape:zoom="0.38250692"
     inkscape:cx="249.66869"
     inkscape:cy="116.33776"
     inkscape:window-width="1328"
     inkscape:window-height="636"
     inkscape:window-x="0"
     inkscape:window-y="38"
     inkscape:window-maximized="0"
     inkscape:current-layer="Page-1" />
  <!-- Generator: Sketch 3.4.3 (16618) - http://www.bohemiancoding.com/sketch -->
  <title
     id="title1">2015_Logo_TUM_RGB</title>
  <desc
     id="desc1">Created with Sketch.</desc>
  <defs
     id="defs1" />
  <g
     id="Page-1"
     stroke="none"
     stroke-width="1"
     fill="none"
     fill-rule="evenodd"
     sketch:type="MSPage">
    <g
       id="2015_Logo_TUM_RGB"
       sketch:type="MSArtboardGroup"
       fill="#3070b3"
       style="fill:#3070b3;fill-opacity:1">
      <path
         d="M405,9.13352234e-15 L370,2.70412665e-15 L370,320 L290,320 L290,1.5562918e-14 L255,9.13352234e-15 L0,1.35206332e-15 L0,70 L70,70 L70,390 L140,390 L140,70 L220,70 L220,390 L255,390 L405,390 L440,390 L440,70 L520,70 L520,390 L590,390 L590,70 L670,70 L670,390 L740,390 L740,35 L740,1.35206332e-15 L405,1.35206332e-15 Z"
         id="Rectangle-1"
         sketch:type="MSShapeGroup"
         style="fill:#3070b3;fill-opacity:1" />
    </g>
  </g>
</svg>
